<mxfile host="app.diagrams.net" agent="Mozilla/5.0 (X11; Linux x86_64) AppleWebKit/537.36 (KHTML, like Gecko) Chrome/133.0.0.0 Safari/537.36" version="26.2.14">
  <diagram name="Page-1" id="lUKV5Gi8OBzJZMQJNrVT">
    <mxGraphModel dx="983" dy="495" grid="1" gridSize="10" guides="1" tooltips="1" connect="1" arrows="1" fold="1" page="1" pageScale="1" pageWidth="850" pageHeight="1100" math="0" shadow="0">
      <root>
        <mxCell id="0" />
        <mxCell id="1" parent="0" />
        <mxCell id="s_6cwHOYtAO5_ifKrdHE-1" value="" style="rounded=1;whiteSpace=wrap;html=1;" vertex="1" parent="1">
          <mxGeometry x="400" y="290" width="150" height="60" as="geometry" />
        </mxCell>
        <mxCell id="s_6cwHOYtAO5_ifKrdHE-2" value="1&amp;nbsp; 0&amp;nbsp; 1&amp;nbsp; 0" style="text;html=1;align=center;verticalAlign=middle;whiteSpace=wrap;rounded=0;fontSize=20;" vertex="1" parent="1">
          <mxGeometry x="417.5" y="305" width="115" height="30" as="geometry" />
        </mxCell>
        <mxCell id="s_6cwHOYtAO5_ifKrdHE-4" value="" style="rounded=1;whiteSpace=wrap;html=1;" vertex="1" parent="1">
          <mxGeometry x="400" y="440" width="150" height="60" as="geometry" />
        </mxCell>
        <mxCell id="s_6cwHOYtAO5_ifKrdHE-5" value="1&amp;nbsp; 1&amp;nbsp; 1&amp;nbsp; 0" style="text;html=1;align=center;verticalAlign=middle;whiteSpace=wrap;rounded=0;fontSize=20;" vertex="1" parent="1">
          <mxGeometry x="417.5" y="455" width="115" height="30" as="geometry" />
        </mxCell>
        <mxCell id="s_6cwHOYtAO5_ifKrdHE-6" value="ID" style="text;html=1;align=left;verticalAlign=middle;whiteSpace=wrap;rounded=0;" vertex="1" parent="1">
          <mxGeometry x="400" y="250" width="60" height="30" as="geometry" />
        </mxCell>
        <mxCell id="s_6cwHOYtAO5_ifKrdHE-7" value="Mask" style="text;html=1;align=left;verticalAlign=middle;whiteSpace=wrap;rounded=0;" vertex="1" parent="1">
          <mxGeometry x="400" y="410" width="60" height="30" as="geometry" />
        </mxCell>
      </root>
    </mxGraphModel>
  </diagram>
</mxfile>
